<mxfile host="app.diagrams.net" modified="2021-01-19T22:39:23.560Z" agent="5.0 (Macintosh; Intel Mac OS X 10_15_7) AppleWebKit/537.36 (KHTML, like Gecko) Chrome/87.0.4280.141 Safari/537.36" etag="qD6m6oUgEC5MuzW2OEFc" version="14.1.8" type="github">
  <diagram id="lLPIBe0nixrsbS69wt9D" name="Page-1">
    <mxGraphModel dx="1298" dy="731" grid="1" gridSize="10" guides="1" tooltips="1" connect="1" arrows="1" fold="1" page="1" pageScale="1" pageWidth="850" pageHeight="1100" math="0" shadow="0">
      <root>
        <mxCell id="0" />
        <mxCell id="1" parent="0" />
        <mxCell id="huRUc8eLphyof20S9JOC-1" value="controller" style="rounded=0;whiteSpace=wrap;html=1;fillColor=#dae8fc;strokeColor=#6c8ebf;" vertex="1" parent="1">
          <mxGeometry x="80" y="80" width="120" height="60" as="geometry" />
        </mxCell>
        <mxCell id="huRUc8eLphyof20S9JOC-2" value="wsgateway" style="rounded=0;whiteSpace=wrap;html=1;fillColor=#dae8fc;strokeColor=#6c8ebf;" vertex="1" parent="1">
          <mxGeometry x="280" y="80" width="120" height="60" as="geometry" />
        </mxCell>
        <mxCell id="huRUc8eLphyof20S9JOC-3" value="worker" style="rounded=0;whiteSpace=wrap;html=1;fillColor=#dae8fc;strokeColor=#6c8ebf;" vertex="1" parent="1">
          <mxGeometry x="480" y="80" width="120" height="60" as="geometry" />
        </mxCell>
        <mxCell id="huRUc8eLphyof20S9JOC-4" value="" style="endArrow=none;html=1;entryX=0.5;entryY=1;entryDx=0;entryDy=0;" edge="1" parent="1" target="huRUc8eLphyof20S9JOC-1">
          <mxGeometry width="50" height="50" relative="1" as="geometry">
            <mxPoint x="140" y="690" as="sourcePoint" />
            <mxPoint x="450" y="350" as="targetPoint" />
          </mxGeometry>
        </mxCell>
        <mxCell id="huRUc8eLphyof20S9JOC-5" value="" style="endArrow=none;html=1;entryX=0.5;entryY=1;entryDx=0;entryDy=0;" edge="1" parent="1">
          <mxGeometry width="50" height="50" relative="1" as="geometry">
            <mxPoint x="339.5" y="690" as="sourcePoint" />
            <mxPoint x="339.5" y="140" as="targetPoint" />
          </mxGeometry>
        </mxCell>
        <mxCell id="huRUc8eLphyof20S9JOC-6" value="" style="endArrow=none;html=1;entryX=0.5;entryY=1;entryDx=0;entryDy=0;" edge="1" parent="1" source="huRUc8eLphyof20S9JOC-7">
          <mxGeometry width="50" height="50" relative="1" as="geometry">
            <mxPoint x="539.5" y="690" as="sourcePoint" />
            <mxPoint x="539.5" y="140" as="targetPoint" />
          </mxGeometry>
        </mxCell>
        <mxCell id="huRUc8eLphyof20S9JOC-7" value="job done." style="rounded=0;whiteSpace=wrap;html=1;fillColor=#d5e8d4;strokeColor=#82b366;" vertex="1" parent="1">
          <mxGeometry x="480" y="190" width="120" height="60" as="geometry" />
        </mxCell>
        <mxCell id="huRUc8eLphyof20S9JOC-8" value="" style="endArrow=none;html=1;entryX=0.5;entryY=1;entryDx=0;entryDy=0;" edge="1" parent="1" source="huRUc8eLphyof20S9JOC-24" target="huRUc8eLphyof20S9JOC-7">
          <mxGeometry width="50" height="50" relative="1" as="geometry">
            <mxPoint x="539.5" y="690" as="sourcePoint" />
            <mxPoint x="539.5" y="140" as="targetPoint" />
          </mxGeometry>
        </mxCell>
        <mxCell id="huRUc8eLphyof20S9JOC-16" style="edgeStyle=orthogonalEdgeStyle;rounded=0;orthogonalLoop=1;jettySize=auto;html=1;entryX=1;entryY=0.5;entryDx=0;entryDy=0;strokeWidth=3;" edge="1" parent="1" source="huRUc8eLphyof20S9JOC-9" target="huRUc8eLphyof20S9JOC-10">
          <mxGeometry relative="1" as="geometry" />
        </mxCell>
        <mxCell id="huRUc8eLphyof20S9JOC-9" value="job done." style="rounded=0;whiteSpace=wrap;html=1;fillColor=#d5e8d4;strokeColor=#82b366;" vertex="1" parent="1">
          <mxGeometry x="280" y="190" width="120" height="60" as="geometry" />
        </mxCell>
        <mxCell id="huRUc8eLphyof20S9JOC-41" style="edgeStyle=orthogonalEdgeStyle;rounded=0;orthogonalLoop=1;jettySize=auto;html=1;entryX=0.5;entryY=0;entryDx=0;entryDy=0;startArrow=none;startFill=0;strokeWidth=3;" edge="1" parent="1" source="huRUc8eLphyof20S9JOC-10" target="huRUc8eLphyof20S9JOC-31">
          <mxGeometry relative="1" as="geometry" />
        </mxCell>
        <mxCell id="huRUc8eLphyof20S9JOC-10" value="job done." style="rounded=0;whiteSpace=wrap;html=1;fillColor=#d5e8d4;strokeColor=#82b366;" vertex="1" parent="1">
          <mxGeometry x="80" y="190" width="120" height="60" as="geometry" />
        </mxCell>
        <mxCell id="huRUc8eLphyof20S9JOC-46" style="edgeStyle=none;rounded=0;orthogonalLoop=1;jettySize=auto;html=1;startArrow=none;startFill=0;strokeWidth=3;" edge="1" parent="1" source="huRUc8eLphyof20S9JOC-12" target="huRUc8eLphyof20S9JOC-14">
          <mxGeometry relative="1" as="geometry" />
        </mxCell>
        <mxCell id="huRUc8eLphyof20S9JOC-12" value="finished_work" style="rounded=0;whiteSpace=wrap;html=1;fillColor=#d5e8d4;strokeColor=#82b366;" vertex="1" parent="1">
          <mxGeometry x="280" y="460" width="120" height="60" as="geometry" />
        </mxCell>
        <mxCell id="huRUc8eLphyof20S9JOC-14" value="finished_work" style="rounded=0;whiteSpace=wrap;html=1;fillColor=#d5e8d4;strokeColor=#82b366;" vertex="1" parent="1">
          <mxGeometry x="80" y="460" width="120" height="60" as="geometry" />
        </mxCell>
        <mxCell id="huRUc8eLphyof20S9JOC-15" value="" style="endArrow=classic;html=1;exitX=0;exitY=0.5;exitDx=0;exitDy=0;entryX=1;entryY=0.5;entryDx=0;entryDy=0;strokeWidth=3;" edge="1" parent="1" source="huRUc8eLphyof20S9JOC-7" target="huRUc8eLphyof20S9JOC-9">
          <mxGeometry width="50" height="50" relative="1" as="geometry">
            <mxPoint x="400" y="400" as="sourcePoint" />
            <mxPoint x="450" y="350" as="targetPoint" />
          </mxGeometry>
        </mxCell>
        <mxCell id="huRUc8eLphyof20S9JOC-21" value="Stop pushing result." style="rounded=0;whiteSpace=wrap;html=1;fillColor=#fff2cc;strokeColor=#d6b656;" vertex="1" parent="1">
          <mxGeometry x="480" y="460" width="120" height="60" as="geometry" />
        </mxCell>
        <mxCell id="huRUc8eLphyof20S9JOC-22" value="" style="endArrow=none;html=1;entryX=0.5;entryY=1;entryDx=0;entryDy=0;" edge="1" parent="1" target="huRUc8eLphyof20S9JOC-21">
          <mxGeometry width="50" height="50" relative="1" as="geometry">
            <mxPoint x="539.5" y="690" as="sourcePoint" />
            <mxPoint x="540" y="250" as="targetPoint" />
          </mxGeometry>
        </mxCell>
        <mxCell id="huRUc8eLphyof20S9JOC-40" style="edgeStyle=orthogonalEdgeStyle;rounded=0;orthogonalLoop=1;jettySize=auto;html=1;startArrow=none;startFill=0;strokeWidth=3;" edge="1" parent="1" source="huRUc8eLphyof20S9JOC-24" target="huRUc8eLphyof20S9JOC-7">
          <mxGeometry relative="1" as="geometry" />
        </mxCell>
        <mxCell id="huRUc8eLphyof20S9JOC-24" value="periodic task to push unacknowledged work" style="rounded=0;whiteSpace=wrap;html=1;fillColor=#fff2cc;strokeColor=#d6b656;" vertex="1" parent="1">
          <mxGeometry x="480" y="290" width="120" height="60" as="geometry" />
        </mxCell>
        <mxCell id="huRUc8eLphyof20S9JOC-25" value="" style="endArrow=none;html=1;entryX=0.5;entryY=1;entryDx=0;entryDy=0;" edge="1" parent="1" source="huRUc8eLphyof20S9JOC-32" target="huRUc8eLphyof20S9JOC-24">
          <mxGeometry width="50" height="50" relative="1" as="geometry">
            <mxPoint x="540" y="380" as="sourcePoint" />
            <mxPoint x="540" y="250" as="targetPoint" />
          </mxGeometry>
        </mxCell>
        <mxCell id="huRUc8eLphyof20S9JOC-33" style="edgeStyle=orthogonalEdgeStyle;rounded=0;orthogonalLoop=1;jettySize=auto;html=1;entryX=0;entryY=0.5;entryDx=0;entryDy=0;strokeWidth=3;" edge="1" parent="1" source="huRUc8eLphyof20S9JOC-31" target="huRUc8eLphyof20S9JOC-32">
          <mxGeometry relative="1" as="geometry" />
        </mxCell>
        <mxCell id="huRUc8eLphyof20S9JOC-45" style="edgeStyle=none;rounded=0;orthogonalLoop=1;jettySize=auto;html=1;startArrow=none;startFill=0;strokeWidth=3;" edge="1" parent="1" source="huRUc8eLphyof20S9JOC-31" target="huRUc8eLphyof20S9JOC-43">
          <mxGeometry relative="1" as="geometry" />
        </mxCell>
        <mxCell id="huRUc8eLphyof20S9JOC-31" value="clean_up" style="rounded=0;whiteSpace=wrap;html=1;fillColor=#fff2cc;strokeColor=#d6b656;" vertex="1" parent="1">
          <mxGeometry x="80" y="280" width="120" height="60" as="geometry" />
        </mxCell>
        <mxCell id="huRUc8eLphyof20S9JOC-38" style="edgeStyle=orthogonalEdgeStyle;rounded=0;orthogonalLoop=1;jettySize=auto;html=1;entryX=0.5;entryY=0;entryDx=0;entryDy=0;strokeWidth=3;" edge="1" parent="1" source="huRUc8eLphyof20S9JOC-32" target="huRUc8eLphyof20S9JOC-21">
          <mxGeometry relative="1" as="geometry" />
        </mxCell>
        <mxCell id="huRUc8eLphyof20S9JOC-32" value="clean_up" style="rounded=0;whiteSpace=wrap;html=1;fillColor=#fff2cc;strokeColor=#d6b656;" vertex="1" parent="1">
          <mxGeometry x="480" y="370" width="120" height="60" as="geometry" />
        </mxCell>
        <mxCell id="huRUc8eLphyof20S9JOC-34" value="" style="endArrow=none;html=1;entryX=0.5;entryY=1;entryDx=0;entryDy=0;" edge="1" parent="1" source="huRUc8eLphyof20S9JOC-21" target="huRUc8eLphyof20S9JOC-32">
          <mxGeometry width="50" height="50" relative="1" as="geometry">
            <mxPoint x="540" y="500" as="sourcePoint" />
            <mxPoint x="540" y="350" as="targetPoint" />
          </mxGeometry>
        </mxCell>
        <mxCell id="huRUc8eLphyof20S9JOC-44" style="edgeStyle=none;rounded=0;orthogonalLoop=1;jettySize=auto;html=1;startArrow=none;startFill=0;strokeWidth=3;" edge="1" parent="1" source="huRUc8eLphyof20S9JOC-43" target="huRUc8eLphyof20S9JOC-12">
          <mxGeometry relative="1" as="geometry" />
        </mxCell>
        <mxCell id="huRUc8eLphyof20S9JOC-43" value="finished_work" style="rounded=0;whiteSpace=wrap;html=1;fillColor=#d5e8d4;strokeColor=#82b366;" vertex="1" parent="1">
          <mxGeometry x="80" y="370" width="120" height="60" as="geometry" />
        </mxCell>
      </root>
    </mxGraphModel>
  </diagram>
</mxfile>
